<?xml version="1.0" encoding="UTF-8"?>
<svg id="Layer_2" data-name="Layer 2" xmlns="http://www.w3.org/2000/svg" viewBox="0 0 1388.49 1388.47">
  <defs>
    <style>
      .cls-1 {
        fill: #221f20;
      }
    </style>
  </defs>
  <path class="cls-1" d="M0,0V1388.47H1388.49V0H0ZM119.99,1338.25c62.75-38.38,117.22-80.16,166.51-127.74,63.26-61.06,115.29-129.41,159.07-208.93,80.98-147.08,119.56-305.65,160.41-473.53,3.09-12.71,6.23-25.56,9.4-38.5,.08-.33,.21-.84,1.07-.91,.05,0,.11,0,.16,0,.73,0,.91,.44,1.03,.74l206.47,495.86c3.72,8.95,12.67,14.12,22.29,12.88,9.62-1.25,16.96-8.54,18.28-18.14l1.09-7.95c27.01-197.55,81.78-375.87,162.79-530.02,80.73-153.61,185.09-278.59,310.2-371.48,.62-.46,1.29-.52,1.98-.18,.68,.34,1.03,.9,1.03,1.67V1341.72H120.9c-.46,0-1.4,0-1.78-1.33-.39-1.38,.49-1.91,.86-2.14ZM1288.46,50.06h0c-118.34,92.89-217.88,213.68-295.84,359.02-74.22,138.39-127.88,296.7-159.5,470.54-.07,.38-.16,.89-1.05,.99-.88,.09-1.08-.39-1.22-.73l-201.09-482.96c-3.56-8.55-11.83-13.65-21.07-12.99-9.25,.66-16.72,6.88-19.03,15.89l-1.59,6.28c-9.51,36.98-18.61,74.36-27.41,110.5l-.11,.44c-38.76,159.35-75.37,309.86-148.37,447.88-39.03,73.79-85,137.36-140.53,194.34-62.1,63.72-134.77,117.95-222.18,165.79-.59,.32-1.19,.31-1.78-.04-.43-.25-.93-.74-.93-1.63V46.75H1287.31c.36,0,1.33,0,1.76,1.25,.43,1.24-.33,1.83-.61,2.06Z"/>
</svg>